<?xml version="1.0" encoding="UTF-8" standalone="no"?>
<!DOCTYPE svg PUBLIC "-//W3C//DTD SVG 1.1//EN" "http://www.w3.org/Graphics/SVG/1.1/DTD/svg11.dtd">
<svg width="100%" height="100%" viewBox="0 0 500 500" version="1.1" xmlns="http://www.w3.org/2000/svg" xmlns:xlink="http://www.w3.org/1999/xlink" xml:space="preserve" xmlns:serif="http://www.serif.com/" style="fill-rule:evenodd;clip-rule:evenodd;stroke-linejoin:round;stroke-miterlimit:2;">
    <rect x="0" y="0" width="500" height="500" style="fill:none;"/>
    <path d="M221.493,297.668l-94.053,-0c-33.765,-0 -59.776,-13.546 -78.033,-40.637c-13.938,-21.005 -20.908,-45.74 -20.908,-74.205c0,-31.803 8.344,-58.992 25.03,-81.568c18.65,-24.931 43.287,-37.495 73.911,-37.691l290.136,-0l15.018,49.764l-298.381,0c-18.257,0 -31.606,9.816 -40.047,29.447c-4.516,10.797 -6.773,22.969 -6.773,36.514c-0,22.576 5.595,40.538 16.784,53.887c8.245,9.62 18.257,14.527 30.036,14.724l87.751,-0l0,-51.389l-62.929,-0.27l0.328,-36.989l117.785,-0.736l-0,123.395l122.498,-0l-0,-98.352l55.654,-0l-0,234.101l-55.654,-0l-0,-85.985l-122.498,0l-0,85.985l-55.655,-0l0,-119.995Z" style="fill:#f50700;stroke:#000;stroke-width:19.81px;"/>
    <g>
        <clipPath id="_clip1">
            <path d="M221.493,297.668l-94.053,-0c-33.765,-0 -59.776,-13.546 -78.033,-40.637c-13.938,-21.005 -20.908,-45.74 -20.908,-74.205c0,-31.803 8.344,-58.992 25.03,-81.568c18.65,-24.931 43.287,-37.495 73.911,-37.691l283.385,-0l15.018,49.764l-291.63,0c-18.257,0 -31.606,9.816 -40.047,29.447c-4.516,10.797 -6.773,22.969 -6.773,36.514c-0,22.576 5.595,40.538 16.784,53.887c8.245,9.62 18.257,14.527 30.036,14.724l87.751,-0l0.766,-52.299l-65.803,0.465l1.162,-36.895l119.528,-1.124l-0.469,123.864l122.498,-0l-0,-98.352l55.654,-0l-0,234.101l-55.654,-0l-0,-85.985l-122.498,0l-0,85.985l-55.655,-0l0,-119.995Z"/>
        </clipPath>
        <g clip-path="url(#_clip1)">
            <rect x="9.141" y="49.102" width="465.517" height="128.57" style="fill:#fff;"/>
            <rect x="9.141" y="157.55" width="465.517" height="148.692" style="fill:#0000fe;"/>
            <rect x="157.039" y="157.55" width="121.426" height="40.275" style="fill:#0000fe;"/>
            <rect x="9.141" y="306.242" width="465.517" height="128.57" style="fill:#fe0000;"/>
        </g>
    </g>
</svg>
